<svg xmlns="http://www.w3.org/2000/svg" width="20.909" height="23" viewBox="0 0 20.909 23">
  <g id="notes" transform="translate(-3 -1.5)">
    <path id="Path_1793" data-name="Path 1793" d="M9,8.545A1.045,1.045,0,0,1,10.045,7.5H20.5a1.045,1.045,0,1,1,0,2.091H10.045A1.045,1.045,0,0,1,9,8.545Z" transform="translate(-1.818 -1.818)" fill="#2a50a9"/>
    <path id="Path_1794" data-name="Path 1794" d="M9,14.545A1.045,1.045,0,0,1,10.045,13.5H20.5a1.045,1.045,0,1,1,0,2.091H10.045A1.045,1.045,0,0,1,9,14.545Z" transform="translate(-1.818 -3.636)" fill="#2a50a9"/>
    <path id="Path_1795" data-name="Path 1795" d="M10.045,19.5a1.045,1.045,0,0,0,0,2.091H20.5a1.045,1.045,0,1,0,0-2.091Z" transform="translate(-1.818 -5.454)" fill="#2a50a9"/>
    <path id="Path_1796" data-name="Path 1796" d="M9,26.545A1.045,1.045,0,0,1,10.045,25.5h4.182a1.045,1.045,0,1,1,0,2.091H10.045A1.045,1.045,0,0,1,9,26.545Z" transform="translate(-1.818 -7.272)" fill="#2a50a9"/>
    <path id="Path_1797" data-name="Path 1797" d="M3,4.636A3.136,3.136,0,0,1,6.136,1.5H20.773a3.136,3.136,0,0,1,3.136,3.136V21.364A3.136,3.136,0,0,1,20.773,24.5H6.136A3.136,3.136,0,0,1,3,21.364ZM6.136,3.591H20.773a1.045,1.045,0,0,1,1.045,1.045V21.364a1.045,1.045,0,0,1-1.045,1.045H6.136a1.045,1.045,0,0,1-1.045-1.045V4.636A1.045,1.045,0,0,1,6.136,3.591Z" transform="translate(0 0)" fill="#2a50a9" fill-rule="evenodd"/>
  </g>
</svg>
