<svg id="filter" xmlns="http://www.w3.org/2000/svg" width="28.697" height="16.301" viewBox="0 0 28.697 16.301">
  <path id="Path_2280" data-name="Path 2280" d="M28.459,11.315H2.57a1.439,1.439,0,0,1,0-2.877H28.459a1.439,1.439,0,0,1,0,2.877Z" transform="translate(-1.166 -8.438)" fill="#fff"/>
  <path id="Path_2281" data-name="Path 2281" d="M24.5,19.19H8.195a1.439,1.439,0,0,1,0-2.877H24.5a1.439,1.439,0,0,1,0,2.877Z" transform="translate(-1.997 -9.601)" fill="#fff"/>
  <path id="Path_2282" data-name="Path 2282" d="M19.739,27.065H14.945a1.439,1.439,0,0,1,0-2.877h4.794a1.439,1.439,0,0,1,0,2.877Z" transform="translate(-2.994 -10.764)" fill="#fff"/>
</svg>
