<svg xmlns="http://www.w3.org/2000/svg" width="21.643" height="16.903" viewBox="0 0 21.643 16.903">
  <path id="money" d="M5.164,7.5H22.479a2.3,2.3,0,0,1,2.164,2.415V21.988A2.3,2.3,0,0,1,22.479,24.4H5.164A2.3,2.3,0,0,1,3,21.988V9.915A2.3,2.3,0,0,1,5.164,7.5Zm15.15,2.415H7.329a2.3,2.3,0,0,1-2.164,2.415v7.244a2.3,2.3,0,0,1,2.164,2.415H20.315a2.3,2.3,0,0,1,2.164-2.415V12.329A2.3,2.3,0,0,1,20.315,9.915ZM9.493,12.329h2.164v7.244H9.493Zm6.493,4.829A1.215,1.215,0,1,0,14.9,15.951,1.15,1.15,0,0,0,15.986,17.159Zm0,2.415a3.45,3.45,0,0,1-3.246-3.622,3.45,3.45,0,0,1,3.246-3.622,3.45,3.45,0,0,1,3.246,3.622A3.45,3.45,0,0,1,15.986,19.573Z" transform="translate(-3 -7.5)" fill="#2a50a9"/>
</svg>
