<svg xmlns="http://www.w3.org/2000/svg" width="21.663" height="26" viewBox="0 0 21.663 26">
  <path id="my-orders" d="M.956,5.877h4.36V4.988a5,5,0,1,1,10,0v.889H19.7a.956.956,0,0,1,.677.281.968.968,0,0,1,.281.675V21.556a3.444,3.444,0,0,1-3.434,3.434H3.434A3.444,3.444,0,0,1,0,21.556V6.833A.958.958,0,0,1,.956,5.877Zm3.188,7.108H6.058a.252.252,0,0,1,.248.25V15.15a.25.25,0,0,1-.25.25H4.144a.25.25,0,0,1-.25-.25V13.235a.252.252,0,0,1,.25-.25Zm4.882,1.969a.774.774,0,0,1,0-1.524h7.527a.773.773,0,0,1,0,1.524ZM3.8,19.766a.407.407,0,0,1,.079-.6.472.472,0,0,1,.637-.02l.446.458,1.115-1.141a.407.407,0,0,1,.6.063.474.474,0,0,1,.041.637L5.236,20.681a.407.407,0,0,1-.6-.063L4.6,20.577a.439.439,0,0,1-.067-.055Zm5.175.57a.774.774,0,0,1,.006-1.524h7.527a.774.774,0,0,1,0,1.524ZM6.532,5.877h7.56V4.988a3.78,3.78,0,0,0-7.558,0v.889ZM5.312,8.239V7.094H1.221V21.556a2.224,2.224,0,0,0,2.215,2.215H17.229a2.238,2.238,0,0,0,2.215-2.215V7.094H15.31V8.251a1.391,1.391,0,1,1-1.221-.02V7.094H6.534V8.243a1.391,1.391,0,1,1-1.221,0Z" transform="translate(0.5 0.51)" fill="#2a50a9" stroke="#2a50a9" stroke-width="1"/>
</svg>
