<svg id="plus" xmlns="http://www.w3.org/2000/svg" width="18.292" height="18.292" viewBox="0 0 18.292 18.292">
  <path id="Path_1" data-name="Path 1" d="M17.021,7.875a1.016,1.016,0,0,1,1.016,1.016v8.13a1.016,1.016,0,0,1-1.016,1.016H8.891a1.016,1.016,0,1,1,0-2.032H16V8.891A1.016,1.016,0,0,1,17.021,7.875Z" transform="translate(-7.875 -7.875)" fill="#fff" fill-rule="evenodd"/>
  <path id="Path_2" data-name="Path 2" d="M16.875,17.891a1.016,1.016,0,0,1,1.016-1.016h8.13a1.016,1.016,0,1,1,0,2.032H18.907v7.113a1.016,1.016,0,1,1-2.032,0Z" transform="translate(-8.745 -8.745)" fill="#fff" fill-rule="evenodd"/>
</svg>
