<svg xmlns="http://www.w3.org/2000/svg" width="23.514" height="23.097" viewBox="0 0 23.514 23.097">
  <path id="goods-contents" d="M12.114,13.839,20.008,9.7l2.038,2.416c-2.853,1.508-5.5,2.933-8.354,4.442ZM5.943,2.653l-.028,5.7a.712.712,0,0,0,.453.661h0l4.953,2.2a1.162,1.162,0,0,0,.721.009l4.565-2.116h0a.734.734,0,0,0,.448-.681L17.026,2.8a.789.789,0,0,0-.464-.823L11.8.056a.755.755,0,0,0-.58.007L6.461,1.783a.715.715,0,0,0-.478.636A.693.693,0,0,0,5.943,2.653Zm6.22,7.47V4.774l4.186-1.649.08,5.172Zm-.991-5.348v5.344L6.639,8.239l.026-5.206,4.507,1.742ZM18.3,8.5l1.17.58L11.6,13.218,3.719,9.075l.946-.492,0-.9-1.188.613L1.259,6.187,4.686,4.333l0-.954L.16,5.773a.3.3,0,0,0-.071.483L2.8,8.917.175,12.058a.3.3,0,0,0,.1.466l2.356,1.246v4.669a.3.3,0,0,0,.187.279l8.518,4.324c.2.1.278.074.494-.067l8.533-4.266a.3.3,0,0,0,.167-.27l0-4.646,2.4-1.268a.3.3,0,0,0,.1-.466L20.474,9,23.44,6.188a.3.3,0,0,0-.029-.426.331.331,0,0,0-.057-.04L18.275,2.85l0,.971,4.07,2.316L19.933,8.384,18.3,7.575ZM3.152,9.729l7.88,4.132L9.5,16.585l-8.291-4.5L3.152,9.729Z" transform="translate(0 -0.002)" fill="#2a50a9"/>
</svg>
