<svg id="column-chart" xmlns="http://www.w3.org/2000/svg" width="23.514" height="20.28" viewBox="0 0 23.514 20.28">
  <path id="Path_1804" data-name="Path 1804" d="M23.514,20.28H1.835v0A1.829,1.829,0,0,1,0,18.447H0V0H2.346V17.936H23.514V20.28ZM14.954,8.726h3.741a.363.363,0,0,1,.362.362v7.36a.363.363,0,0,1-.362.362H14.954a.363.363,0,0,1-.362-.362V9.09a.364.364,0,0,1,.362-.364Zm-11.1-4.5H7.594a.363.363,0,0,1,.362.362V16.449a.363.363,0,0,1-.362.362H3.853a.363.363,0,0,1-.362-.362V4.585a.363.363,0,0,1,.362-.362ZM9.4,1.69h3.739a.363.363,0,0,1,.362.362v14.4a.363.363,0,0,1-.362.362H9.4a.363.363,0,0,1-.362-.362V2.051A.363.363,0,0,1,9.4,1.69Z" fill="#2a50a9"/>
</svg>
