<svg xmlns="http://www.w3.org/2000/svg" width="25.983" height="21.521" viewBox="0 0 25.983 21.521">
  <path id="transfer-arrows" d="M8.639,9.12c0,.45.034.983,0,1.423a2.026,2.026,0,0,1-.1.531,1.383,1.383,0,0,1-.552.738,1.467,1.467,0,0,1-.869.224,2.263,2.263,0,0,1-.6-.116,1.144,1.144,0,0,1-.307-.169c-.92-.719-1.873-1.495-2.833-2.271C2.495,8.754,1.6,8.035.606,7.246L.549,7.189a1.708,1.708,0,0,1-.472-.677,1.377,1.377,0,0,1-.047-.772,1.569,1.569,0,0,1,.277-.592,2.326,2.326,0,0,1,.423-.423C2.465,3.415,4.19,1.922,5.9.554A2.326,2.326,0,0,1,7.286,0,1.347,1.347,0,0,1,7.85.12L7.9.144A1.283,1.283,0,0,1,8.322.5a1.937,1.937,0,0,1,.37,1.237V2.918h5.322a1.057,1.057,0,0,1,1.047,1.045V8.075A1.057,1.057,0,0,1,14.014,9.12Zm8.7,3.282c0-.45-.034-.983,0-1.423a2.026,2.026,0,0,1,.1-.531,1.387,1.387,0,0,1,.552-.738l.044-.027a1.48,1.48,0,0,1,.825-.195,2.093,2.093,0,0,1,.6.116l.156.066.135.091c.92.719,1.88,1.5,2.835,2.277.888.725,1.791,1.453,2.791,2.237l.057.049a1.692,1.692,0,0,1,.469.689,1.372,1.372,0,0,1,.049.77l-.019.066a1.613,1.613,0,0,1-.26.526,2.326,2.326,0,0,1-.423.423c-1.738,1.307-3.468,2.8-5.159,4.168a2.3,2.3,0,0,1-1.385.556,1.379,1.379,0,0,1-.565-.118l-.051-.025a1.3,1.3,0,0,1-.423-.351,1.947,1.947,0,0,1-.366-1.239v-1.18H11.961a1.057,1.057,0,0,1-1.047-1.057v-4.1a1.057,1.057,0,0,1,1.047-1.057Zm-9.851-1.99V8.538a.579.579,0,0,1,.579-.579H13.9V4.079H8.1a.577.577,0,0,1-.571-.586V1.734a.911.911,0,0,0-.116-.52l-.042-.036a.211.211,0,0,0-.089-.017,1.209,1.209,0,0,0-.668.307L1.45,5.639a1.1,1.1,0,0,0-.211.211A.423.423,0,0,0,1.162,6a.228.228,0,0,0,0,.131.565.565,0,0,0,.161.211c.9.708,1.848,1.48,2.789,2.243.9.717,1.806,1.459,2.808,2.243a.886.886,0,0,0,.243.047.319.319,0,0,0,.188-.036.243.243,0,0,0,.091-.135.774.774,0,0,0,.038-.211v-.076Z" transform="translate(0.003 0)" fill="#2a50a9"/>
</svg>
